<svg id="Layer_1" data-name="Layer 1" xmlns="http://www.w3.org/2000/svg" viewBox="0 0 512 512"><defs><style>.cls-1{opacity:0.06;}.cls-2{fill:#50b9ff;}.cls-3{fill:#dae2f2;}.cls-4{fill:#9fafbf;}.cls-5{fill:#1e87c1;}.cls-6{fill:#fff;}</style></defs><title>player-flat</title><g class="cls-1"><path d="M512,65.64V446.36a39.42,39.42,0,0,1-39.38,39.38H256V26.26H472.62A39.42,39.42,0,0,1,512,65.64Z"/></g><path class="cls-2" d="M512,65.64V367.59H0V65.64A39.42,39.42,0,0,1,39.38,26.26H472.62A39.42,39.42,0,0,1,512,65.64Z"/><path class="cls-3" d="M512,367.59v78.77a39.42,39.42,0,0,1-39.38,39.38H39.38A39.42,39.42,0,0,1,0,446.36V367.59Z"/><path class="cls-4" d="M452.92,433.23H59.08a6.56,6.56,0,1,1,0-13.13H452.92a6.56,6.56,0,1,1,0,13.13Z"/><path class="cls-5" d="M256,91.9A111.59,111.59,0,1,0,367.59,203.49,111.71,111.71,0,0,0,256,91.9Z"/><path class="cls-6" d="M294.88,192.29l-51.14-26.54a14.72,14.72,0,0,0-14.33.46,12.57,12.57,0,0,0-6.23,10.74V230a12.57,12.57,0,0,0,6.23,10.74,14.71,14.71,0,0,0,14.33.46l51.14-26.54a12.41,12.41,0,0,0,0-22.4Z"/></svg>